<?xml version="1.0" encoding="UTF-8" standalone="no"?>
<!DOCTYPE svg PUBLIC "-//W3C//DTD SVG 1.1//EN"
 "http://www.w3.org/Graphics/SVG/1.1/DTD/svg11.dtd">
<!-- Generated by graphviz version 2.43.0 (0)
 -->
<!-- Title: snakemake_dag Pages: 1 -->
<svg width="515pt" height="353pt"
 viewBox="0.00 0.00 514.50 353.00" xmlns="http://www.w3.org/2000/svg" xmlns:xlink="http://www.w3.org/1999/xlink">
<g id="graph0" class="graph" transform="scale(1 1) rotate(0) translate(4 349)">
<title>snakemake_dag</title>
<polygon fill="white" stroke="transparent" points="-4,4 -4,-349 510.5,-349 510.5,4 -4,4"/>
<!-- 0 -->
<g id="node1" class="node">
<title>0</title>
<path fill="none" stroke="#568ad8" stroke-width="2" stroke-dasharray="5,2" d="M163,-36C163,-36 60,-36 60,-36 54,-36 48,-30 48,-24 48,-24 48,-12 48,-12 48,-6 54,0 60,0 60,0 163,0 163,0 169,0 175,-6 175,-12 175,-12 175,-24 175,-24 175,-30 169,-36 163,-36"/>
<text text-anchor="middle" x="111.5" y="-15.5" font-family="sans" font-size="10.00">inverseRL_plot_results</text>
</g>
<!-- 1 -->
<g id="node2" class="node">
<title>1</title>
<path fill="none" stroke="#d86e56" stroke-width="2" stroke-dasharray="5,2" d="M113,-268C113,-268 12,-268 12,-268 6,-268 0,-262 0,-256 0,-256 0,-228 0,-228 0,-222 6,-216 12,-216 12,-216 113,-216 113,-216 119,-216 125,-222 125,-228 125,-228 125,-256 125,-256 125,-262 119,-268 113,-268"/>
<text text-anchor="middle" x="62.5" y="-256" font-family="sans" font-size="10.00">inverseRL_make_envc</text>
<text text-anchor="middle" x="62.5" y="-245" font-family="sans" font-size="10.00">reward: 10</text>
<text text-anchor="middle" x="62.5" y="-234" font-family="sans" font-size="10.00">trapcost: &#45;10</text>
<text text-anchor="middle" x="62.5" y="-223" font-family="sans" font-size="10.00">wind: .2</text>
</g>
<!-- 1&#45;&gt;0 -->
<g id="edge1" class="edge">
<title>1&#45;&gt;0</title>
<path fill="none" stroke="grey" stroke-width="2" d="M68.03,-215.97C77.32,-173.85 96,-89.2 105.57,-45.88"/>
<polygon fill="grey" stroke="grey" stroke-width="2" points="109,-46.58 107.74,-36.06 102.16,-45.07 109,-46.58"/>
</g>
<!-- 3 -->
<g id="node4" class="node">
<title>3</title>
<path fill="none" stroke="#56b9d8" stroke-width="2" stroke-dasharray="5,2" d="M212,-108C212,-108 147,-108 147,-108 141,-108 135,-102 135,-96 135,-96 135,-84 135,-84 135,-78 141,-72 147,-72 147,-72 212,-72 212,-72 218,-72 224,-78 224,-84 224,-84 224,-96 224,-96 224,-102 218,-108 212,-108"/>
<text text-anchor="middle" x="179.5" y="-87.5" font-family="sans" font-size="10.00">inverseRL_IAVI</text>
</g>
<!-- 1&#45;&gt;3 -->
<g id="edge4" class="edge">
<title>1&#45;&gt;3</title>
<path fill="none" stroke="grey" stroke-width="2" d="M82.08,-215.89C103.66,-188.23 138.16,-143.99 159.79,-116.27"/>
<polygon fill="grey" stroke="grey" stroke-width="2" points="162.67,-118.27 166.06,-108.23 157.15,-113.96 162.67,-118.27"/>
</g>
<!-- 5 -->
<g id="node6" class="node">
<title>5</title>
<path fill="none" stroke="#c6d856" stroke-width="2" stroke-dasharray="5,2" d="M278,-180C278,-180 163,-180 163,-180 157,-180 151,-174 151,-168 151,-168 151,-156 151,-156 151,-150 157,-144 163,-144 163,-144 278,-144 278,-144 284,-144 290,-150 290,-156 290,-156 290,-168 290,-168 290,-174 284,-180 278,-180"/>
<text text-anchor="middle" x="220.5" y="-159.5" font-family="sans" font-size="10.00">inverseRL_interpret_data</text>
</g>
<!-- 1&#45;&gt;5 -->
<g id="edge9" class="edge">
<title>1&#45;&gt;5</title>
<path fill="none" stroke="grey" stroke-width="2" d="M113.36,-215.89C133.77,-205.82 157.05,-194.32 176.69,-184.63"/>
<polygon fill="grey" stroke="grey" stroke-width="2" points="178.3,-187.74 185.72,-180.17 175.2,-181.46 178.3,-187.74"/>
</g>
<!-- 2 -->
<g id="node3" class="node">
<title>2</title>
<path fill="none" stroke="#d8a456" stroke-width="2" stroke-dasharray="5,2" d="M321,-345C321,-345 128,-345 128,-345 122,-345 116,-339 116,-333 116,-333 116,-316 116,-316 116,-310 122,-304 128,-304 128,-304 321,-304 321,-304 327,-304 333,-310 333,-316 333,-316 333,-333 333,-333 333,-339 327,-345 321,-345"/>
<text text-anchor="middle" x="224.5" y="-333" font-family="sans" font-size="10.00">inverseRL_construct_environment_config</text>
<text text-anchor="middle" x="224.5" y="-322" font-family="sans" font-size="10.00">condition: trap</text>
<text text-anchor="middle" x="224.5" y="-311" font-family="sans" font-size="10.00">experiment: Wystrach2020</text>
</g>
<!-- 2&#45;&gt;1 -->
<g id="edge3" class="edge">
<title>2&#45;&gt;1</title>
<path fill="none" stroke="grey" stroke-width="2" d="M184.87,-303.81C166.02,-294.44 143.09,-283.04 122.19,-272.66"/>
<polygon fill="grey" stroke="grey" stroke-width="2" points="123.58,-269.44 113.07,-268.13 120.46,-275.71 123.58,-269.44"/>
</g>
<!-- 4 -->
<g id="node5" class="node">
<title>4</title>
<path fill="none" stroke="#61d856" stroke-width="2" stroke-dasharray="5,2" d="M494.5,-260C494.5,-260 336.5,-260 336.5,-260 330.5,-260 324.5,-254 324.5,-248 324.5,-248 324.5,-236 324.5,-236 324.5,-230 330.5,-224 336.5,-224 336.5,-224 494.5,-224 494.5,-224 500.5,-224 506.5,-230 506.5,-236 506.5,-236 506.5,-248 506.5,-248 506.5,-254 500.5,-260 494.5,-260"/>
<text text-anchor="middle" x="415.5" y="-245" font-family="sans" font-size="10.00">inverseRL_transition_probabilities</text>
<text text-anchor="middle" x="415.5" y="-234" font-family="sans" font-size="10.00">wind: .2</text>
</g>
<!-- 2&#45;&gt;4 -->
<g id="edge7" class="edge">
<title>2&#45;&gt;4</title>
<path fill="none" stroke="grey" stroke-width="2" d="M271.22,-303.81C299.8,-291.76 336.34,-276.36 365.5,-264.07"/>
<polygon fill="grey" stroke="grey" stroke-width="2" points="367.23,-267.14 375.08,-260.04 364.51,-260.69 367.23,-267.14"/>
</g>
<!-- 6 -->
<g id="node7" class="node">
<title>6</title>
<path fill="none" stroke="#56d8a9" stroke-width="2" stroke-dasharray="5,2" d="M294,-260C294,-260 155,-260 155,-260 149,-260 143,-254 143,-248 143,-248 143,-236 143,-236 143,-230 149,-224 155,-224 155,-224 294,-224 294,-224 300,-224 306,-230 306,-236 306,-236 306,-248 306,-248 306,-254 300,-260 294,-260"/>
<text text-anchor="middle" x="224.5" y="-239.5" font-family="sans" font-size="10.00">inverseRL_convert_dataframe</text>
</g>
<!-- 2&#45;&gt;6 -->
<g id="edge11" class="edge">
<title>2&#45;&gt;6</title>
<path fill="none" stroke="grey" stroke-width="2" d="M224.5,-303.6C224.5,-293.61 224.5,-281.36 224.5,-270.49"/>
<polygon fill="grey" stroke="grey" stroke-width="2" points="228,-270.22 224.5,-260.22 221,-270.22 228,-270.22"/>
</g>
<!-- 3&#45;&gt;0 -->
<g id="edge2" class="edge">
<title>3&#45;&gt;0</title>
<path fill="none" stroke="grey" stroke-width="2" d="M162.69,-71.7C154.37,-63.14 144.19,-52.66 135.11,-43.3"/>
<polygon fill="grey" stroke="grey" stroke-width="2" points="137.59,-40.84 128.12,-36.1 132.57,-45.72 137.59,-40.84"/>
</g>
<!-- 4&#45;&gt;3 -->
<g id="edge5" class="edge">
<title>4&#45;&gt;3</title>
<path fill="none" stroke="grey" stroke-width="2" d="M398.05,-223.89C376.16,-203.08 336.83,-167.8 298.5,-144 278.26,-131.43 254.52,-120.23 233.59,-111.4"/>
<polygon fill="grey" stroke="grey" stroke-width="2" points="234.77,-108.1 224.2,-107.51 232.1,-114.57 234.77,-108.1"/>
</g>
<!-- 4&#45;&gt;5 -->
<g id="edge10" class="edge">
<title>4&#45;&gt;5</title>
<path fill="none" stroke="grey" stroke-width="2" d="M372.71,-223.88C343.24,-212.1 303.92,-196.37 272.63,-183.85"/>
<polygon fill="grey" stroke="grey" stroke-width="2" points="273.78,-180.54 263.19,-180.08 271.18,-187.04 273.78,-180.54"/>
</g>
<!-- 5&#45;&gt;3 -->
<g id="edge6" class="edge">
<title>5&#45;&gt;3</title>
<path fill="none" stroke="grey" stroke-width="2" d="M210.37,-143.7C205.65,-135.64 199.94,-125.89 194.72,-116.98"/>
<polygon fill="grey" stroke="grey" stroke-width="2" points="197.59,-114.96 189.52,-108.1 191.55,-118.5 197.59,-114.96"/>
</g>
<!-- 6&#45;&gt;5 -->
<g id="edge8" class="edge">
<title>6&#45;&gt;5</title>
<path fill="none" stroke="grey" stroke-width="2" d="M223.61,-223.69C223.11,-213.89 222.47,-201.42 221.9,-190.33"/>
<polygon fill="grey" stroke="grey" stroke-width="2" points="225.39,-190.07 221.39,-180.26 218.4,-190.43 225.39,-190.07"/>
</g>
</g>
</svg>
