<?xml version="1.0" encoding="UTF-8" standalone="no"?>
<!DOCTYPE svg PUBLIC "-//W3C//DTD SVG 1.1//EN"
 "http://www.w3.org/Graphics/SVG/1.1/DTD/svg11.dtd">
<!-- Generated by graphviz version 2.43.0 (0)
 -->
<!-- Title: snakemake_dag Pages: 1 -->
<svg width="193pt" height="193pt"
 viewBox="0.00 0.00 193.00 193.00" xmlns="http://www.w3.org/2000/svg" xmlns:xlink="http://www.w3.org/1999/xlink">
<g id="graph0" class="graph" transform="scale(1 1) rotate(0) translate(4 189)">
<title>snakemake_dag</title>
<polygon fill="white" stroke="transparent" points="-4,4 -4,-189 189,-189 189,4 -4,4"/>
<!-- 0 -->
<g id="node1" class="node">
<title>0</title>
<path fill="none" stroke="#d8a456" stroke-width="2" stroke-dasharray="5,2" d="M173,-36C173,-36 12,-36 12,-36 6,-36 0,-30 0,-24 0,-24 0,-12 0,-12 0,-6 6,0 12,0 12,0 173,0 173,0 179,0 185,-6 185,-12 185,-12 185,-24 185,-24 185,-30 179,-36 173,-36"/>
<text text-anchor="middle" x="92.5" y="-15.5" font-family="sans" font-size="10.00">data_prep_interpolate_trajectories</text>
</g>
<!-- 1 -->
<g id="node2" class="node">
<title>1</title>
<path fill="none" stroke="#56a2d8" stroke-width="2" stroke-dasharray="5,2" d="M155,-113C155,-113 30,-113 30,-113 24,-113 18,-107 18,-101 18,-101 18,-84 18,-84 18,-78 24,-72 30,-72 30,-72 155,-72 155,-72 161,-72 167,-78 167,-84 167,-84 167,-101 167,-101 167,-107 161,-113 155,-113"/>
<text text-anchor="middle" x="92.5" y="-101" font-family="sans" font-size="10.00">data_prep_transform_data</text>
<text text-anchor="middle" x="92.5" y="-90" font-family="sans" font-size="10.00">condition: trap</text>
<text text-anchor="middle" x="92.5" y="-79" font-family="sans" font-size="10.00">experiment: Wystrach2020</text>
</g>
<!-- 1&#45;&gt;0 -->
<g id="edge1" class="edge">
<title>1&#45;&gt;0</title>
<path fill="none" stroke="grey" stroke-width="2" d="M92.5,-71.69C92.5,-63.91 92.5,-54.84 92.5,-46.45"/>
<polygon fill="grey" stroke="grey" stroke-width="2" points="96,-46.32 92.5,-36.32 89,-46.32 96,-46.32"/>
</g>
<!-- 2 -->
<g id="node3" class="node">
<title>2</title>
<path fill="none" stroke="#56d87b" stroke-width="2" stroke-dasharray="5,2" d="M150.5,-185C150.5,-185 34.5,-185 34.5,-185 28.5,-185 22.5,-179 22.5,-173 22.5,-173 22.5,-161 22.5,-161 22.5,-155 28.5,-149 34.5,-149 34.5,-149 150.5,-149 150.5,-149 156.5,-149 162.5,-155 162.5,-161 162.5,-161 162.5,-173 162.5,-173 162.5,-179 156.5,-185 150.5,-185"/>
<text text-anchor="middle" x="92.5" y="-164.5" font-family="sans" font-size="10.00">data_prep_separate_data</text>
</g>
<!-- 2&#45;&gt;1 -->
<g id="edge2" class="edge">
<title>2&#45;&gt;1</title>
<path fill="none" stroke="grey" stroke-width="2" d="M92.5,-148.82C92.5,-141.2 92.5,-132 92.5,-123.32"/>
<polygon fill="grey" stroke="grey" stroke-width="2" points="96,-123.12 92.5,-113.12 89,-123.12 96,-123.12"/>
</g>
</g>
</svg>
