<?xml version="1.0" encoding="UTF-8" standalone="no"?>
<!DOCTYPE svg PUBLIC "-//W3C//DTD SVG 1.1//EN"
 "http://www.w3.org/Graphics/SVG/1.1/DTD/svg11.dtd">
<!-- Generated by graphviz version 2.43.0 (0)
 -->
<!-- Title: snakemake_dag Pages: 1 -->
<svg width="1040pt" height="425pt"
 viewBox="0.00 0.00 1039.50 425.00" xmlns="http://www.w3.org/2000/svg" xmlns:xlink="http://www.w3.org/1999/xlink">
<g id="graph0" class="graph" transform="scale(1 1) rotate(0) translate(4 421)">
<title>snakemake_dag</title>
<polygon fill="white" stroke="transparent" points="-4,4 -4,-421 1035.5,-421 1035.5,4 -4,4"/>
<!-- 0 -->
<g id="node1" class="node">
<title>0</title>
<path fill="none" stroke="#56a2d8" stroke-width="2" d="M420.5,-36C420.5,-36 390.5,-36 390.5,-36 384.5,-36 378.5,-30 378.5,-24 378.5,-24 378.5,-12 378.5,-12 378.5,-6 384.5,0 390.5,0 390.5,0 420.5,0 420.5,0 426.5,0 432.5,-6 432.5,-12 432.5,-12 432.5,-24 432.5,-24 432.5,-30 426.5,-36 420.5,-36"/>
<text text-anchor="middle" x="405.5" y="-15.5" font-family="sans" font-size="10.00">IAVI</text>
</g>
<!-- 1 -->
<g id="node2" class="node">
<title>1</title>
<path fill="none" stroke="#97d856" stroke-width="2" d="M276,-108C276,-108 173,-108 173,-108 167,-108 161,-102 161,-96 161,-96 161,-84 161,-84 161,-78 167,-72 173,-72 173,-72 276,-72 276,-72 282,-72 288,-78 288,-84 288,-84 288,-96 288,-96 288,-102 282,-108 276,-108"/>
<text text-anchor="middle" x="224.5" y="-87.5" font-family="sans" font-size="10.00">inverseRL_plot_results</text>
</g>
<!-- 1&#45;&gt;0 -->
<g id="edge1" class="edge">
<title>1&#45;&gt;0</title>
<path fill="none" stroke="grey" stroke-width="2" d="M268.78,-71.88C299.52,-59.98 340,-44.33 368.92,-33.15"/>
<polygon fill="grey" stroke="grey" stroke-width="2" points="370.19,-36.41 378.25,-29.54 367.66,-29.88 370.19,-36.41"/>
</g>
<!-- 2 -->
<g id="node3" class="node">
<title>2</title>
<path fill="none" stroke="#78d856" stroke-width="2" d="M113,-340C113,-340 12,-340 12,-340 6,-340 0,-334 0,-328 0,-328 0,-300 0,-300 0,-294 6,-288 12,-288 12,-288 113,-288 113,-288 119,-288 125,-294 125,-300 125,-300 125,-328 125,-328 125,-334 119,-340 113,-340"/>
<text text-anchor="middle" x="62.5" y="-328" font-family="sans" font-size="10.00">inverseRL_make_envc</text>
<text text-anchor="middle" x="62.5" y="-317" font-family="sans" font-size="10.00">reward: 100</text>
<text text-anchor="middle" x="62.5" y="-306" font-family="sans" font-size="10.00">trapcost: &#45;100</text>
<text text-anchor="middle" x="62.5" y="-295" font-family="sans" font-size="10.00">wind: 0.0</text>
</g>
<!-- 2&#45;&gt;1 -->
<g id="edge3" class="edge">
<title>2&#45;&gt;1</title>
<path fill="none" stroke="grey" stroke-width="2" d="M71.94,-287.66C79.99,-267.46 92.62,-238.88 107.5,-216 130.68,-180.35 141.31,-174.91 170.5,-144 179.52,-134.45 189.73,-124.27 198.83,-115.42"/>
<polygon fill="grey" stroke="grey" stroke-width="2" points="201.4,-117.8 206.16,-108.33 196.54,-112.77 201.4,-117.8"/>
</g>
<!-- 4 -->
<g id="node5" class="node">
<title>4</title>
<path fill="none" stroke="#afd856" stroke-width="2" d="M257,-180C257,-180 192,-180 192,-180 186,-180 180,-174 180,-168 180,-168 180,-156 180,-156 180,-150 186,-144 192,-144 192,-144 257,-144 257,-144 263,-144 269,-150 269,-156 269,-156 269,-168 269,-168 269,-174 263,-180 257,-180"/>
<text text-anchor="middle" x="224.5" y="-159.5" font-family="sans" font-size="10.00">inverseRL_IAVI</text>
</g>
<!-- 2&#45;&gt;4 -->
<g id="edge6" class="edge">
<title>2&#45;&gt;4</title>
<path fill="none" stroke="grey" stroke-width="2" d="M80.95,-287.83C96.76,-267.21 120.82,-237.95 145.5,-216 157.95,-204.92 172.86,-194.35 186.35,-185.59"/>
<polygon fill="grey" stroke="grey" stroke-width="2" points="188.41,-188.43 194.98,-180.12 184.66,-182.52 188.41,-188.43"/>
</g>
<!-- 6 -->
<g id="node7" class="node">
<title>6</title>
<path fill="none" stroke="#56d8c9" stroke-width="2" d="M282,-252C282,-252 167,-252 167,-252 161,-252 155,-246 155,-240 155,-240 155,-228 155,-228 155,-222 161,-216 167,-216 167,-216 282,-216 282,-216 288,-216 294,-222 294,-228 294,-228 294,-240 294,-240 294,-246 288,-252 282,-252"/>
<text text-anchor="middle" x="224.5" y="-231.5" font-family="sans" font-size="10.00">inverseRL_interpret_data</text>
</g>
<!-- 2&#45;&gt;6 -->
<g id="edge11" class="edge">
<title>2&#45;&gt;6</title>
<path fill="none" stroke="grey" stroke-width="2" d="M114.65,-287.89C135.57,-277.82 159.44,-266.32 179.58,-256.63"/>
<polygon fill="grey" stroke="grey" stroke-width="2" points="181.35,-259.66 188.84,-252.17 178.31,-253.35 181.35,-259.66"/>
</g>
<!-- 3 -->
<g id="node4" class="node">
<title>3</title>
<path fill="none" stroke="#56d863" stroke-width="2" d="M321,-417C321,-417 128,-417 128,-417 122,-417 116,-411 116,-405 116,-405 116,-388 116,-388 116,-382 122,-376 128,-376 128,-376 321,-376 321,-376 327,-376 333,-382 333,-388 333,-388 333,-405 333,-405 333,-411 327,-417 321,-417"/>
<text text-anchor="middle" x="224.5" y="-405" font-family="sans" font-size="10.00">inverseRL_construct_environment_config</text>
<text text-anchor="middle" x="224.5" y="-394" font-family="sans" font-size="10.00">condition: no&#45;trap</text>
<text text-anchor="middle" x="224.5" y="-383" font-family="sans" font-size="10.00">experiment: Wystrach2020</text>
</g>
<!-- 3&#45;&gt;2 -->
<g id="edge5" class="edge">
<title>3&#45;&gt;2</title>
<path fill="none" stroke="grey" stroke-width="2" d="M184.87,-375.81C166.02,-366.44 143.09,-355.04 122.19,-344.66"/>
<polygon fill="grey" stroke="grey" stroke-width="2" points="123.58,-341.44 113.07,-340.13 120.46,-347.71 123.58,-341.44"/>
</g>
<!-- 5 -->
<g id="node6" class="node">
<title>5</title>
<path fill="none" stroke="#56d87b" stroke-width="2" d="M494.5,-332C494.5,-332 336.5,-332 336.5,-332 330.5,-332 324.5,-326 324.5,-320 324.5,-320 324.5,-308 324.5,-308 324.5,-302 330.5,-296 336.5,-296 336.5,-296 494.5,-296 494.5,-296 500.5,-296 506.5,-302 506.5,-308 506.5,-308 506.5,-320 506.5,-320 506.5,-326 500.5,-332 494.5,-332"/>
<text text-anchor="middle" x="415.5" y="-317" font-family="sans" font-size="10.00">inverseRL_transition_probabilities</text>
<text text-anchor="middle" x="415.5" y="-306" font-family="sans" font-size="10.00">wind: 0.0</text>
</g>
<!-- 3&#45;&gt;5 -->
<g id="edge9" class="edge">
<title>3&#45;&gt;5</title>
<path fill="none" stroke="grey" stroke-width="2" d="M271.22,-375.81C299.8,-363.76 336.34,-348.36 365.5,-336.07"/>
<polygon fill="grey" stroke="grey" stroke-width="2" points="367.23,-339.14 375.08,-332.04 364.51,-332.69 367.23,-339.14"/>
</g>
<!-- 7 -->
<g id="node8" class="node">
<title>7</title>
<path fill="none" stroke="#d8d356" stroke-width="2" d="M294,-332C294,-332 155,-332 155,-332 149,-332 143,-326 143,-320 143,-320 143,-308 143,-308 143,-302 149,-296 155,-296 155,-296 294,-296 294,-296 300,-296 306,-302 306,-308 306,-308 306,-320 306,-320 306,-326 300,-332 294,-332"/>
<text text-anchor="middle" x="224.5" y="-311.5" font-family="sans" font-size="10.00">inverseRL_convert_dataframe</text>
</g>
<!-- 3&#45;&gt;7 -->
<g id="edge13" class="edge">
<title>3&#45;&gt;7</title>
<path fill="none" stroke="grey" stroke-width="2" d="M224.5,-375.6C224.5,-365.61 224.5,-353.36 224.5,-342.49"/>
<polygon fill="grey" stroke="grey" stroke-width="2" points="228,-342.22 224.5,-332.22 221,-342.22 228,-342.22"/>
</g>
<!-- 4&#45;&gt;1 -->
<g id="edge4" class="edge">
<title>4&#45;&gt;1</title>
<path fill="none" stroke="grey" stroke-width="2" d="M224.5,-143.7C224.5,-135.98 224.5,-126.71 224.5,-118.11"/>
<polygon fill="grey" stroke="grey" stroke-width="2" points="228,-118.1 224.5,-108.1 221,-118.1 228,-118.1"/>
</g>
<!-- 5&#45;&gt;4 -->
<g id="edge7" class="edge">
<title>5&#45;&gt;4</title>
<path fill="none" stroke="grey" stroke-width="2" d="M396.85,-295.85C374.88,-275.92 337,-242.39 302.5,-216 288.95,-205.64 273.52,-194.93 259.97,-185.88"/>
<polygon fill="grey" stroke="grey" stroke-width="2" points="261.65,-182.79 251.38,-180.19 257.78,-188.63 261.65,-182.79"/>
</g>
<!-- 5&#45;&gt;6 -->
<g id="edge12" class="edge">
<title>5&#45;&gt;6</title>
<path fill="none" stroke="grey" stroke-width="2" d="M373.58,-295.88C344.85,-284.15 306.54,-268.5 275.96,-256.01"/>
<polygon fill="grey" stroke="grey" stroke-width="2" points="276.9,-252.62 266.32,-252.08 274.25,-259.1 276.9,-252.62"/>
</g>
<!-- 6&#45;&gt;4 -->
<g id="edge8" class="edge">
<title>6&#45;&gt;4</title>
<path fill="none" stroke="grey" stroke-width="2" d="M224.5,-215.7C224.5,-207.98 224.5,-198.71 224.5,-190.11"/>
<polygon fill="grey" stroke="grey" stroke-width="2" points="228,-190.1 224.5,-180.1 221,-190.1 228,-190.1"/>
</g>
<!-- 7&#45;&gt;6 -->
<g id="edge10" class="edge">
<title>7&#45;&gt;6</title>
<path fill="none" stroke="grey" stroke-width="2" d="M224.5,-295.69C224.5,-285.89 224.5,-273.42 224.5,-262.33"/>
<polygon fill="grey" stroke="grey" stroke-width="2" points="228,-262.26 224.5,-252.26 221,-262.26 228,-262.26"/>
</g>
<!-- 8 -->
<g id="node9" class="node">
<title>8</title>
<path fill="none" stroke="#97d856" stroke-width="2" d="M639,-108C639,-108 536,-108 536,-108 530,-108 524,-102 524,-96 524,-96 524,-84 524,-84 524,-78 530,-72 536,-72 536,-72 639,-72 639,-72 645,-72 651,-78 651,-84 651,-84 651,-96 651,-96 651,-102 645,-108 639,-108"/>
<text text-anchor="middle" x="587.5" y="-87.5" font-family="sans" font-size="10.00">inverseRL_plot_results</text>
</g>
<!-- 8&#45;&gt;0 -->
<g id="edge2" class="edge">
<title>8&#45;&gt;0</title>
<path fill="none" stroke="grey" stroke-width="2" d="M542.98,-71.88C511.97,-59.95 471.11,-44.23 442.02,-33.04"/>
<polygon fill="grey" stroke="grey" stroke-width="2" points="443.22,-29.76 432.63,-29.43 440.71,-36.29 443.22,-29.76"/>
</g>
<!-- 9 -->
<g id="node10" class="node">
<title>9</title>
<path fill="none" stroke="#78d856" stroke-width="2" d="M638,-340C638,-340 537,-340 537,-340 531,-340 525,-334 525,-328 525,-328 525,-300 525,-300 525,-294 531,-288 537,-288 537,-288 638,-288 638,-288 644,-288 650,-294 650,-300 650,-300 650,-328 650,-328 650,-334 644,-340 638,-340"/>
<text text-anchor="middle" x="587.5" y="-328" font-family="sans" font-size="10.00">inverseRL_make_envc</text>
<text text-anchor="middle" x="587.5" y="-317" font-family="sans" font-size="10.00">reward: 100</text>
<text text-anchor="middle" x="587.5" y="-306" font-family="sans" font-size="10.00">trapcost: &#45;100</text>
<text text-anchor="middle" x="587.5" y="-295" font-family="sans" font-size="10.00">wind: 0.0</text>
</g>
<!-- 9&#45;&gt;8 -->
<g id="edge14" class="edge">
<title>9&#45;&gt;8</title>
<path fill="none" stroke="grey" stroke-width="2" d="M587.5,-287.97C587.5,-245.94 587.5,-161.56 587.5,-118.16"/>
<polygon fill="grey" stroke="grey" stroke-width="2" points="591,-118.06 587.5,-108.06 584,-118.06 591,-118.06"/>
</g>
<!-- 11 -->
<g id="node12" class="node">
<title>11</title>
<path fill="none" stroke="#afd856" stroke-width="2" d="M737,-180C737,-180 672,-180 672,-180 666,-180 660,-174 660,-168 660,-168 660,-156 660,-156 660,-150 666,-144 672,-144 672,-144 737,-144 737,-144 743,-144 749,-150 749,-156 749,-156 749,-168 749,-168 749,-174 743,-180 737,-180"/>
<text text-anchor="middle" x="704.5" y="-159.5" font-family="sans" font-size="10.00">inverseRL_IAVI</text>
</g>
<!-- 9&#45;&gt;11 -->
<g id="edge17" class="edge">
<title>9&#45;&gt;11</title>
<path fill="none" stroke="grey" stroke-width="2" d="M607.08,-287.89C628.66,-260.23 663.16,-215.99 684.79,-188.27"/>
<polygon fill="grey" stroke="grey" stroke-width="2" points="687.67,-190.27 691.06,-180.23 682.15,-185.96 687.67,-190.27"/>
</g>
<!-- 13 -->
<g id="node14" class="node">
<title>13</title>
<path fill="none" stroke="#56d8c9" stroke-width="2" d="M801,-252C801,-252 686,-252 686,-252 680,-252 674,-246 674,-240 674,-240 674,-228 674,-228 674,-222 680,-216 686,-216 686,-216 801,-216 801,-216 807,-216 813,-222 813,-228 813,-228 813,-240 813,-240 813,-246 807,-252 801,-252"/>
<text text-anchor="middle" x="743.5" y="-231.5" font-family="sans" font-size="10.00">inverseRL_interpret_data</text>
</g>
<!-- 9&#45;&gt;13 -->
<g id="edge22" class="edge">
<title>9&#45;&gt;13</title>
<path fill="none" stroke="grey" stroke-width="2" d="M637.72,-287.89C657.77,-277.86 680.65,-266.43 699.98,-256.76"/>
<polygon fill="grey" stroke="grey" stroke-width="2" points="701.78,-259.77 709.16,-252.17 698.65,-253.51 701.78,-259.77"/>
</g>
<!-- 10 -->
<g id="node11" class="node">
<title>10</title>
<path fill="none" stroke="#56d863" stroke-width="2" d="M846,-417C846,-417 653,-417 653,-417 647,-417 641,-411 641,-405 641,-405 641,-388 641,-388 641,-382 647,-376 653,-376 653,-376 846,-376 846,-376 852,-376 858,-382 858,-388 858,-388 858,-405 858,-405 858,-411 852,-417 846,-417"/>
<text text-anchor="middle" x="749.5" y="-405" font-family="sans" font-size="10.00">inverseRL_construct_environment_config</text>
<text text-anchor="middle" x="749.5" y="-394" font-family="sans" font-size="10.00">condition: trap</text>
<text text-anchor="middle" x="749.5" y="-383" font-family="sans" font-size="10.00">experiment: Wystrach2020</text>
</g>
<!-- 10&#45;&gt;9 -->
<g id="edge16" class="edge">
<title>10&#45;&gt;9</title>
<path fill="none" stroke="grey" stroke-width="2" d="M709.87,-375.81C691.02,-366.44 668.09,-355.04 647.19,-344.66"/>
<polygon fill="grey" stroke="grey" stroke-width="2" points="648.58,-341.44 638.07,-340.13 645.46,-347.71 648.58,-341.44"/>
</g>
<!-- 12 -->
<g id="node13" class="node">
<title>12</title>
<path fill="none" stroke="#56d87b" stroke-width="2" d="M1019.5,-332C1019.5,-332 861.5,-332 861.5,-332 855.5,-332 849.5,-326 849.5,-320 849.5,-320 849.5,-308 849.5,-308 849.5,-302 855.5,-296 861.5,-296 861.5,-296 1019.5,-296 1019.5,-296 1025.5,-296 1031.5,-302 1031.5,-308 1031.5,-308 1031.5,-320 1031.5,-320 1031.5,-326 1025.5,-332 1019.5,-332"/>
<text text-anchor="middle" x="940.5" y="-317" font-family="sans" font-size="10.00">inverseRL_transition_probabilities</text>
<text text-anchor="middle" x="940.5" y="-306" font-family="sans" font-size="10.00">wind: 0.0</text>
</g>
<!-- 10&#45;&gt;12 -->
<g id="edge20" class="edge">
<title>10&#45;&gt;12</title>
<path fill="none" stroke="grey" stroke-width="2" d="M796.22,-375.81C824.8,-363.76 861.34,-348.36 890.5,-336.07"/>
<polygon fill="grey" stroke="grey" stroke-width="2" points="892.23,-339.14 900.08,-332.04 889.51,-332.69 892.23,-339.14"/>
</g>
<!-- 14 -->
<g id="node15" class="node">
<title>14</title>
<path fill="none" stroke="#d8d356" stroke-width="2" d="M819,-332C819,-332 680,-332 680,-332 674,-332 668,-326 668,-320 668,-320 668,-308 668,-308 668,-302 674,-296 680,-296 680,-296 819,-296 819,-296 825,-296 831,-302 831,-308 831,-308 831,-320 831,-320 831,-326 825,-332 819,-332"/>
<text text-anchor="middle" x="749.5" y="-311.5" font-family="sans" font-size="10.00">inverseRL_convert_dataframe</text>
</g>
<!-- 10&#45;&gt;14 -->
<g id="edge24" class="edge">
<title>10&#45;&gt;14</title>
<path fill="none" stroke="grey" stroke-width="2" d="M749.5,-375.6C749.5,-365.61 749.5,-353.36 749.5,-342.49"/>
<polygon fill="grey" stroke="grey" stroke-width="2" points="753,-342.22 749.5,-332.22 746,-342.22 753,-342.22"/>
</g>
<!-- 11&#45;&gt;8 -->
<g id="edge15" class="edge">
<title>11&#45;&gt;8</title>
<path fill="none" stroke="grey" stroke-width="2" d="M675.88,-143.88C660.58,-134.72 641.56,-123.34 625.08,-113.48"/>
<polygon fill="grey" stroke="grey" stroke-width="2" points="626.61,-110.32 616.23,-108.19 623.02,-116.33 626.61,-110.32"/>
</g>
<!-- 12&#45;&gt;11 -->
<g id="edge18" class="edge">
<title>12&#45;&gt;11</title>
<path fill="none" stroke="grey" stroke-width="2" d="M922.86,-295.92C900.74,-275.15 861.04,-239.9 822.5,-216 802.47,-203.58 779.04,-192.44 758.36,-183.61"/>
<polygon fill="grey" stroke="grey" stroke-width="2" points="759.64,-180.36 749.07,-179.72 756.94,-186.81 759.64,-180.36"/>
</g>
<!-- 12&#45;&gt;13 -->
<g id="edge23" class="edge">
<title>12&#45;&gt;13</title>
<path fill="none" stroke="grey" stroke-width="2" d="M897.27,-295.88C867.5,-284.1 827.78,-268.37 796.16,-255.85"/>
<polygon fill="grey" stroke="grey" stroke-width="2" points="797.22,-252.5 786.63,-252.08 794.64,-259.01 797.22,-252.5"/>
</g>
<!-- 13&#45;&gt;11 -->
<g id="edge19" class="edge">
<title>13&#45;&gt;11</title>
<path fill="none" stroke="grey" stroke-width="2" d="M733.86,-215.7C729.37,-207.64 723.94,-197.89 718.98,-188.98"/>
<polygon fill="grey" stroke="grey" stroke-width="2" points="721.95,-187.14 714.03,-180.1 715.84,-190.54 721.95,-187.14"/>
</g>
<!-- 14&#45;&gt;13 -->
<g id="edge21" class="edge">
<title>14&#45;&gt;13</title>
<path fill="none" stroke="grey" stroke-width="2" d="M748.17,-295.69C747.41,-285.89 746.46,-273.42 745.6,-262.33"/>
<polygon fill="grey" stroke="grey" stroke-width="2" points="749.08,-261.96 744.83,-252.26 742.11,-262.5 749.08,-261.96"/>
</g>
</g>
</svg>
